<?xml version="1.0" ?><!DOCTYPE svg  PUBLIC '-//W3C//DTD SVG 1.1//EN'  'http://www.w3.org/Graphics/SVG/1.1/DTD/svg11.dtd'><svg xmlns="http://www.w3.org/2000/svg" xmlns:xlink="http://www.w3.org/1999/xlink"><symbol id="email" viewBox="0 0 64 64" xml:space="preserve" xmlns="http://www.w3.org/2000/svg"><style>.ast0{fill:#134563}</style><g id="aIcon-Envelope" transform="translate(78 232)"><path class="ast0" d="M-22.5-213.2l-1.9-1.9-17.6 17.6c-2.2 2.2-5.9 2.2-8.1 0L-67.7-215l-1.9 1.9 13.1 13.1-13.1 13.1 1.9 1.9 13.1-13.1 2.6 2.6c1.6 1.6 3.7 2.5 5.9 2.5s4.3-.9 5.9-2.5l2.6-2.6 13.1 13.1 1.9-1.9-13.1-13.1 13.2-13.2" id="aFill-3"/><path class="ast0" d="M-26.2-181.6h-39.5c-2.3 0-4.2-1.9-4.2-4.2V-214c0-2.3 1.9-4.2 4.2-4.2h39.5c2.3 0 4.2 1.9 4.2 4.2v28.2c0 2.3-1.9 4.2-4.2 4.2zm-39.6-33.9c-.8 0-1.4.6-1.4 1.4v28.2c0 .8.6 1.4 1.4 1.4h39.5c.8 0 1.4-.6 1.4-1.4v-28.2c0-.8-.6-1.4-1.4-1.4h-39.5z" id="aFill-4"/></g></symbol><symbol id="instagram" viewBox="0 0 128 128" xmlns="http://www.w3.org/2000/svg"><defs><style>.bcls-1{fill:#062b31}</style></defs><path class="bcls-1" d="M83 23a22 22 0 0122 22v38a22 22 0 01-22 22H45a22 22 0 01-22-22V45a22 22 0 0122-22h38m0-8H45a30.09 30.09 0 00-30 30v38a30.09 30.09 0 0030 30h38a30.09 30.09 0 0030-30V45a30.09 30.09 0 00-30-30z"/><path class="bcls-1" d="M90.14 32a5.73 5.73 0 105.73 5.73A5.73 5.73 0 0090.14 32zM64.27 46.47A17.68 17.68 0 1146.6 64.14a17.7 17.7 0 0117.67-17.67m0-8A25.68 25.68 0 1090 64.14a25.68 25.68 0 00-25.73-25.67z"/></symbol><symbol viewBox="0 0 32 32" id="soundcloud" xmlns="http://www.w3.org/2000/svg"><path d="M26 25H16c-.6 0-1-.4-1-1V8.1c0-.5.4-.9.9-1 .4-.1.8-.1 1.1-.1 3.2 0 6.4 2.7 7.5 6.2.5-.1 1-.2 1.5-.2 3.3 0 6 2.7 6 6s-2.7 6-6 6zM13 25c-.6 0-1-.4-1-1V10c0-.6.4-1 1-1s1 .4 1 1v14c0 .6-.4 1-1 1zM10 24c-.6 0-1-.4-1-1v-7c0-.6.4-1 1-1s1 .4 1 1v7c0 .6-.4 1-1 1zM7 25c-.6 0-1-.4-1-1V13c0-.6.4-1 1-1s1 .4 1 1v11c0 .6-.4 1-1 1zM4 24c-.6 0-1-.4-1-1v-6c0-.6.4-1 1-1s1 .4 1 1v6c0 .6-.4 1-1 1zM1 23c-.6 0-1-.4-1-1v-4c0-.6.4-1 1-1s1 .4 1 1v4c0 .6-.4 1-1 1z"/></symbol><symbol viewBox="0 0 448 512" id="telegram" xmlns="http://www.w3.org/2000/svg"><path d="M446.7 98.6l-67.6 318.8c-5.1 22.5-18.4 28.1-37.3 17.5l-103-75.9-49.7 47.8c-5.5 5.5-10.1 10.1-20.7 10.1l7.4-104.9 190.9-172.5c8.3-7.4-1.8-11.5-12.9-4.1L117.8 284 16.2 252.2c-22.1-6.9-22.5-22.1 4.6-32.7L418.2 66.4c18.4-6.9 34.5 4.1 28.5 32.2z"/></symbol><symbol id="youtube" viewBox="0 0 128 128" xmlns="http://www.w3.org/2000/svg"><defs><style>.ecls-1{fill:#062b31}</style></defs><path class="ecls-1" d="M64 32.29c.23 0 22.92 0 37.9 1.08l.66.06c2 .18 4.16.39 6.28 2.58 1 1 2.14 4.54 2.53 7.07a156 156 0 011 16.71v8.24a156.82 156.82 0 01-1 16.72c-.37 2.47-1.54 6.06-2.52 7-2.11 2.18-4.32 2.39-6.27 2.58l-.68.07c-14.72 1-36.89 1.1-37.89 1.1-1.15 0-28-.27-36.57-1-.51-.08-1-.15-1.58-.21-2.28-.27-4.87-.58-6.73-2.51-1-1-2.14-4.53-2.52-7.05a156 156 0 01-1-16.71v-8.16a156.79 156.79 0 011-16.71c.39-2.55 1.55-6.09 2.53-7.07 2.12-2.19 4.33-2.39 6.28-2.58l.66-.06c15-1.07 37.67-1.08 37.89-1.08H64m0-6.5s-23.09 0-38.48 1.1c-2.15.25-6.83.27-11 4.59-3.29 3.3-4.37 10.79-4.37 10.79A162.25 162.25 0 009 59.86v8.24a162.19 162.19 0 001.1 17.59s1.07 7.49 4.37 10.78c4.19 4.32 9.68 4.19 12.13 4.65 8.8.83 37.4 1.09 37.4 1.09s23.11 0 38.51-1.13c2.15-.25 6.84-.28 11-4.6 3.29-3.29 4.37-10.78 4.37-10.78A162.26 162.26 0 00119 68.11v-8.24a162.27 162.27 0 00-1.1-17.59s-1.07-7.49-4.37-10.79c-4.18-4.32-8.87-4.35-11-4.59C87.11 25.79 64 25.79 64 25.79z"/><path class="ecls-1" d="M54.13 47.61v32.78L82.12 64 54.13 47.61z"/></symbol></svg>